<svg width="64" height="139" viewBox="0 0 64 139" xmlns="http://www.w3.org/2000/svg"><title>icon-sessions</title><g fill="#FFF" fill-rule="evenodd"><path d="M48.67 88.215h.21V16.892h-.023C48.394 7.482 41.007 0 31.96 0c-9.046 0-16.434 7.48-16.897 16.892h-.023v71.323h.21c1.28 8.51 8.274 15.016 16.71 15.016 8.436 0 15.43-6.505 16.71-15.015z"/><path d="M35.72 131.385v-11.57c14.576-1.738 26.154-13.457 27.956-28.26.18-.44.28-.918.28-1.42V63.838c0-2.07-1.67-3.746-3.76-3.746-2.077 0-3.76 1.675-3.76 3.745v26.294c0 .156.01.31.028.46-1.25 11.648-11.77 20.74-24.562 20.74-12.613 0-23.017-8.84-24.503-20.252.078-.303.12-.62.12-.948V63.84c0-2.07-1.67-3.746-3.76-3.746C1.683 60.094 0 61.77 0 63.84v26.294c0 .455.08.89.23 1.294 1.75 14.863 13.352 26.645 27.97 28.388v11.57H15.023c-2.067 0-3.743 1.665-3.743 3.752 0 2.074 1.673 3.754 3.743 3.754h33.874c2.067 0 3.743-1.666 3.743-3.754 0-2.073-1.673-3.753-3.743-3.753H35.72z"/></g></svg>
