<svg width="300" height="311" viewBox="0 0 300 311" xmlns="http://www.w3.org/2000/svg" xmlns:xlink="http://www.w3.org/1999/xlink"><title>mic</title><defs><path d="M54.96 183.647c22.795-2.33 40.6-20.334 42.974-42.823.673-.93.826-1.663.826-2.47v-15.648c0-3.19-2.568-5.765-5.785-5.765-3.19 0-5.778 2.574-5.785 5.766v15.647c.007.27.022.507 0 .823-1.873 17.81-18.05 31.777-38.016 32.118-19.1-.34-35.098-13.922-37.19-31.294-.073-.626-.01-1.113 0-1.647v-15.647c-.01-3.187-2.577-5.762-5.786-5.765-3.197.004-5.785 2.58-5.785 5.766v15.647c0 .734.123 1.402 0 1.647 3.045 23.21 20.886 41.31 42.975 43.647v18.118H23.554c-3.218-.002-5.795 2.556-5.785 5.764-.01 3.183 2.56 5.764 5.784 5.764H75.62c3.162 0 5.74-2.56 5.785-5.765-.046-3.188-2.618-5.77-5.785-5.765H54.96v-18.118zm20.66-47.765V26.352C74.872 11.52 63.506 0 49.174 0 35.67 0 24.3 11.517 23.554 26.353v109.53C25.846 148.922 36.607 158.94 50 158.94c12.566 0 23.327-10.014 25.62-23.058z" id="a"/></defs><g fill="none" fill-rule="evenodd"><g id="mic"><path fill="#FAFAFA" d="M0 0h300v311H0z"/><ellipse fill-opacity=".2" fill="#000" cx="149.69" cy="219.912" rx="49.174" ry="9.882"/><g transform="translate(100.517 6.206)"><mask id="b" fill="#fff"><use xlink:href="#a"/></mask><use fill="#FFF" xlink:href="#a"/><path fill="#4B4B4B" mask="url(#b)" d="M-30.58-14h146.282v246.235h-146.28z"/><path fill="#383838" mask="url(#b)" d="M49.174-14h92.562v246.235H49.174z"/><text opacity=".2" mask="url(#b)" transform="rotate(-270 50.723 99.029)" font-family="Roboto" font-size="40.007" font-weight="bold" fill="#000"><tspan x="43.285" y="112.559">(</tspan></text></g><g transform="translate(137.546 79.263)" fill="#000" fill-opacity=".2"><ellipse cx="4.596" cy="4.58" rx="4.596" ry="4.58"/><ellipse cx="19.735" cy="4.58" rx="4.596" ry="4.58"/></g><g transform="translate(128.099 77.647)" fill="#E91E63"><ellipse cx="14.042" cy="4.58" rx="4.596" ry="4.58"/><ellipse cx="29.181" cy="4.58" rx="4.596" ry="4.58"/><text transform="rotate(-270 24.06 25.414)" font-family="Roboto" font-size="40.408" font-weight="500"><tspan x="16.761" y="38.709">(</tspan></text></g><text font-family="Arial" font-size="19" fill="#673AB7"><tspan x="11.47" y="269">Aw, shucks! This browser doesn’t</tspan> <tspan x="47.136" y="297">support recording audio.</tspan></text></g></g></svg>
